<?xml version="1.0" encoding="UTF-8"?>
<!DOCTYPE svg PUBLIC "-//W3C//DTD SVG 1.1//EN" "http://www.w3.org/Graphics/SVG/1.1/DTD/svg11.dtd">
<svg xmlns="http://www.w3.org/2000/svg" version="1.1" width="512px" height="512px" style="shape-rendering:geometricPrecision; text-rendering:geometricPrecision; image-rendering:optimizeQuality; fill-rule:evenodd; clip-rule:evenodd" xmlns:xlink="http://www.w3.org/1999/xlink">
<g><path style="opacity:1" fill="#fee500" d="M -0.5,-0.5 C 170.167,-0.5 340.833,-0.5 511.5,-0.5C 511.5,170.167 511.5,340.833 511.5,511.5C 340.833,511.5 170.167,511.5 -0.5,511.5C -0.5,340.833 -0.5,170.167 -0.5,-0.5 Z"/></g>
<g><path style="opacity:1" fill="#303375" d="M 357.5,101.5 C 334.5,101.5 311.5,101.5 288.5,101.5C 288.5,112.167 288.5,122.833 288.5,133.5C 289.833,133.5 291.167,133.5 292.5,133.5C 336.881,139.001 376.215,155.834 410.5,184C 446.959,219.812 457.459,262.312 442,311.5C 428.926,346.905 406.092,374.071 373.5,393C 343.586,409.313 311.586,418.48 277.5,420.5C 277.5,413.833 277.5,407.167 277.5,400.5C 320.43,398.185 359.096,384.351 393.5,359C 428.506,328.987 442.339,291.154 435,245.5C 426.899,218.065 411.066,196.232 387.5,180C 354.911,158.914 319.244,146.581 280.5,143C 279.667,142.167 278.833,141.333 278,140.5C 277.333,124.833 277.333,109.167 278,93.5C 278.5,93 279,92.5 279.5,92C 305.411,90.5183 331.411,90.0183 357.5,90.5C 357.5,94.1667 357.5,97.8333 357.5,101.5 Z"/></g>
<g><path style="opacity:1" fill="#313475" d="M 187.5,91.5 C 202.847,90.7008 217.847,92.5341 232.5,97C 242.854,102.833 246.688,111.666 244,123.5C 240.974,130.771 235.807,135.938 228.5,139C 203.124,147.347 178.124,156.681 153.5,167C 126.241,178.193 104.075,195.693 87,219.5C 80.046,230.528 76.2127,242.528 75.5,255.5C 80.8333,255.5 86.1667,255.5 91.5,255.5C 91.5,259.167 91.5,262.833 91.5,266.5C 83.16,266.666 74.8267,266.5 66.5,266C 64.0259,263.959 63.0259,261.292 63.5,258C 65.1369,236.236 72.9702,217.069 87,200.5C 108.213,178.132 133.38,161.632 162.5,151C 183.642,143.73 204.642,136.064 225.5,128C 234.814,122.47 235.814,115.803 228.5,108C 224.317,106.204 219.984,104.871 215.5,104C 199.655,102.65 183.988,103.65 168.5,107C 164.492,108.113 160.659,109.613 157,111.5C 154.71,108.42 152.543,105.253 150.5,102C 151.672,101.581 152.672,100.915 153.5,100C 164.784,96.4493 176.117,93.6159 187.5,91.5 Z"/></g>
<g><path style="opacity:1" fill="#b1a330" d="M 357.5,101.5 C 335.006,102.497 312.339,102.831 289.5,102.5C 289.5,112.5 289.5,122.5 289.5,132.5C 290.791,132.263 291.791,132.596 292.5,133.5C 291.167,133.5 289.833,133.5 288.5,133.5C 288.5,122.833 288.5,112.167 288.5,101.5C 311.5,101.5 334.5,101.5 357.5,101.5 Z"/></g>
<g><path style="opacity:1" fill="#323577" d="M 235.5,166.5 C 278.128,162.936 318.461,170.769 356.5,190C 373.475,198.972 387.308,211.472 398,227.5C 407.637,244.275 410.97,262.275 408,281.5C 404.006,306.328 392.173,326.495 372.5,342C 341.421,363.781 306.755,375.115 268.5,376C 234.542,378.407 201.875,373.074 170.5,360C 147.642,349.47 129.475,333.637 116,312.5C 95.8111,269.749 103.644,233.249 139.5,203C 168.326,182.447 200.326,170.281 235.5,166.5 Z"/></g>
<g><path style="opacity:1" fill="#f6cf2e" d="M 234.5,173.5 C 277.252,169.351 317.585,177.184 355.5,197C 358.833,199.333 362.167,201.667 365.5,204C 349.857,210.995 333.524,213.329 316.5,211C 304.675,207.52 293.008,203.52 281.5,199C 269.508,195.668 257.508,195.668 245.5,199C 238.887,201.305 232.887,204.638 227.5,209C 218.62,210.053 209.953,212.053 201.5,215C 184.121,214.322 167.454,210.489 151.5,203.5C 161.298,196.231 171.964,190.398 183.5,186C 200.15,179.827 217.15,175.661 234.5,173.5 Z"/></g>
<g><path style="opacity:1" fill="#fcfcfd" d="M 252.5,204.5 C 259.508,204.334 266.508,204.5 273.5,205C 285.685,208.425 297.685,212.425 309.5,217C 331.201,221.573 352.034,219.073 372,209.5C 385.942,220.041 395.442,233.708 400.5,250.5C 400.182,251.647 399.516,252.481 398.5,253C 377.946,257.851 358.113,264.684 339,273.5C 318.458,255.956 297.624,238.789 276.5,222C 269.797,218.269 262.797,217.603 255.5,220C 245.946,225.555 236.946,231.889 228.5,239C 223.254,240.506 217.921,240.839 212.5,240C 210.842,239.275 210.342,238.108 211,236.5C 218.87,226.963 227.703,218.463 237.5,211C 242.367,208.226 247.367,206.059 252.5,204.5 Z"/></g>
<g><path style="opacity:1" fill="#fcfcfd" d="M 141.5,209.5 C 156.588,214.36 171.922,218.526 187.5,222C 193.5,222.667 199.5,222.667 205.5,222C 209.487,220.607 213.487,219.607 217.5,219C 212.319,223.881 207.485,229.047 203,234.5C 202.196,242.059 205.696,246.559 213.5,248C 221.082,249.548 228.082,248.215 234.5,244C 241.273,237.893 248.607,232.56 256.5,228C 260.375,226.48 264.375,226.146 268.5,227C 272.828,228.829 276.828,231.162 280.5,234C 299.799,249.575 318.632,265.742 337,282.5C 339.506,287.659 338.006,291.159 332.5,293C 330.167,293.667 327.833,293.667 325.5,293C 317.538,286.706 309.871,280.04 302.5,273C 298.744,270.457 296.911,271.29 297,275.5C 304.698,282.864 312.031,290.53 319,298.5C 319.568,305.18 316.402,308.846 309.5,309.5C 307.701,309.423 306.034,308.923 304.5,308C 299.135,302.301 293.469,296.967 287.5,292C 282.858,290.968 281.692,292.468 284,296.5C 288.435,301.691 293.101,306.691 298,311.5C 300.225,315.163 299.392,317.996 295.5,320C 292.5,320.667 289.5,320.667 286.5,320C 281.913,314.741 276.747,310.241 271,306.5C 268.812,307.059 268.146,308.393 269,310.5C 272.647,314.982 276.481,319.315 280.5,323.5C 279.91,324.799 278.91,325.632 277.5,326C 272.133,327.256 267.466,326.089 263.5,322.5C 266.417,308.418 260.751,300.418 246.5,298.5C 245.832,285.174 238.832,279.507 225.5,281.5C 218.731,273.445 210.398,271.445 200.5,275.5C 192.914,270.334 185.414,270.334 178,275.5C 173.71,272.605 169.21,270.105 164.5,268C 147.571,262.355 130.571,257.188 113.5,252.5C 118.822,235.52 128.155,221.186 141.5,209.5 Z"/></g>
<g><path style="opacity:1" fill="#f6d02e" d="M 399.5,260.5 C 400.5,260.5 401.5,260.5 402.5,260.5C 402.753,279.578 396.586,296.245 384,310.5C 364.946,329.952 342.113,343.119 315.5,350C 267.572,363.306 220.572,360.64 174.5,342C 152.459,332.62 134.625,318.12 121,298.5C 114.315,287.061 111.482,274.727 112.5,261.5C 133.375,265.052 153.375,271.386 172.5,280.5C 171.824,294.145 178.158,301.478 191.5,302.5C 194.567,312.053 201.234,316.719 211.5,316.5C 216.076,323.119 222.409,325.952 230.5,325C 235.616,333.126 242.95,336.126 252.5,334C 255.173,332.999 257.507,331.499 259.5,329.5C 268.683,334.966 277.683,334.8 286.5,329C 293.151,328.92 298.984,326.753 304,322.5C 305.559,320.783 306.392,318.783 306.5,316.5C 314.039,316.98 320.205,314.313 325,308.5C 326.202,306.323 326.702,303.989 326.5,301.5C 341.293,300.714 347.627,293.047 345.5,278.5C 363.408,271.861 381.408,265.861 399.5,260.5 Z"/></g>
<g><path style="opacity:1" fill="#fbfbfc" d="M 185.5,278.5 C 192.319,277.227 196.319,279.894 197.5,286.5C 199.905,285.313 202.239,283.813 204.5,282C 208.167,281.333 211.833,281.333 215.5,282C 218.27,285.171 220.27,288.671 221.5,292.5C 227.25,286.049 233.083,286.049 239,292.5C 239.291,297.189 239.291,301.856 239,306.5C 239.414,306.957 239.914,307.291 240.5,307.5C 249.928,303.526 255.595,306.526 257.5,316.5C 256.256,325.232 251.256,328.732 242.5,327C 237.704,324.244 235.371,320.077 235.5,314.5C 233.158,314.504 231.158,315.337 229.5,317C 220.888,318.388 216.555,314.721 216.5,306C 213.472,306.777 210.305,307.61 207,308.5C 202.85,307.688 199.85,305.354 198,301.5C 197.899,298.3 197.232,295.3 196,292.5C 191.046,296.677 186.38,296.343 182,291.5C 179.348,286.039 180.514,281.706 185.5,278.5 Z"/></g>
</svg>
